<?xml version="1.0" encoding="utf-8"?>
<!-- Generator: Adobe Illustrator 23.0.6, SVG Export Plug-In . SVG Version: 6.00 Build 0)  -->
<svg version="1.1" id="Camada_1" xmlns="http://www.w3.org/2000/svg" xmlns:xlink="http://www.w3.org/1999/xlink" x="0px" y="0px"
	 viewBox="0 0 100 100" style="enable-background:new 0 0 100 100;" xml:space="preserve">
<style type="text/css">
	.st0{fill:#FFFFFF;}
</style>
<g>
	<path class="st0" d="M65.2,31.1c-1.9-0.7-4.2-0.3-5.5,1.2c-1.8,2-1.6,5.1,0.4,6.9c0.9,0.8,2,1.2,3.2,1.2c1.4,0,2.7-0.6,3.6-1.6
		c1.4-1.6,1.6-3.9,0.5-5.7l14.4-16.3c0.6,0.3,1.2,0.4,1.9,0.4c1.4,0,2.7-0.6,3.6-1.6c1.8-2,1.6-5.1-0.4-6.9C85,7,81.8,7.2,80.1,9.2
		c-0.9,1-1.3,2.2-1.2,3.5c0,0.8,0.3,1.5,0.7,2.1L65.2,31.1z M64.7,36.8c-0.6,0.7-1.9,0.8-2.6,0.2c-0.8-0.7-0.8-1.8-0.2-2.6
		c0.3-0.4,0.9-0.6,1.4-0.6c0.4,0,0.9,0.2,1.2,0.5C65.3,34.9,65.3,36,64.7,36.8z M82.4,11.2c0.3-0.4,0.8-0.6,1.4-0.6
		c0.4,0,0.9,0.2,1.2,0.5c0.8,0.7,0.8,1.8,0.2,2.6c-0.6,0.7-1.9,0.8-2.6,0.2c-0.4-0.3-0.6-0.8-0.6-1.3C81.9,12,82,11.5,82.4,11.2z"/>
	<path class="st0" d="M97.7,87c-1.5-1.4-3.9-1.5-5.6-0.5L56.5,55.1l-2,2.3h0L38.5,75.4l2.3,2l0,0l9.3,8.2l2-2.3l0,0l5.3-6
		c0.6,0.3,1.2,0.4,1.9,0.4c1.4,0,2.7-0.6,3.6-1.6c1.8-2,1.6-5.1-0.4-6.9c-1.9-1.7-5.2-1.5-6.9,0.4c-0.9,1-1.3,2.2-1.2,3.5
		c0,0.8,0.3,1.5,0.7,2.1l-5.3,6l-7-6.2l13.9-15.8l33.3,29.4c-0.3,0.7-0.4,1.4-0.4,2.2c0.1,1.3,0.7,2.5,1.6,3.3
		c0.9,0.8,2,1.2,3.2,1.2c1.4,0,2.7-0.6,3.6-1.6c0.9-1,1.3-2.2,1.2-3.5C99.3,89,98.7,87.8,97.7,87z M58,71.6c0.3-0.4,0.9-0.6,1.4-0.6
		c0.4,0,0.9,0.2,1.2,0.5c0.8,0.7,0.8,1.8,0.2,2.6c-0.6,0.7-1.9,0.8-2.6,0.2c-0.4-0.3-0.6-0.8-0.6-1.3C57.5,72.5,57.7,72,58,71.6z
		 M95.9,91.8c-0.6,0.7-1.9,0.8-2.6,0.2c-0.4-0.3-0.6-0.8-0.6-1.3c0-0.5,0.1-1,0.5-1.3c0.3-0.4,0.8-0.6,1.4-0.6
		c0.4,0,0.9,0.2,1.2,0.5c0.4,0.3,0.6,0.8,0.6,1.3C96.4,91,96.2,91.5,95.9,91.8z"/>
	<path class="st0" d="M62.1,83.4c-0.9,1-1.3,2.2-1.2,3.5c0.1,1.3,0.7,2.5,1.6,3.3c0.9,0.8,2,1.2,3.2,1.2c1.4,0,2.7-0.6,3.6-1.6
		c1.8-2,1.6-5.1-0.4-6.9C67.1,81.2,63.8,81.4,62.1,83.4z M67.2,87.8c-0.6,0.7-1.9,0.8-2.6,0.2c-0.4-0.3-0.6-0.8-0.6-1.3
		c0-0.5,0.1-1,0.5-1.3c0.3-0.4,0.9-0.6,1.4-0.6c0.4,0,0.9,0.2,1.2,0.5C67.8,85.9,67.8,87,67.2,87.8z"/>
	<path class="st0" d="M51.5,49.6c0.6,0.3,1.2,0.4,1.9,0.4c1.4,0,2.7-0.6,3.6-1.6c1.8-2,1.6-5.1-0.4-6.9c-1.9-1.7-5.2-1.5-6.9,0.4
		c-0.9,1-1.3,2.2-1.2,3.5c0,0.8,0.3,1.5,0.7,2.1L17.8,83.2c-1.9-0.7-4.2-0.3-5.5,1.2c-0.9,1-1.3,2.2-1.2,3.5
		c0.1,1.3,0.7,2.5,1.6,3.3c0.9,0.8,2,1.2,3.2,1.2c1.4,0,2.7-0.6,3.6-1.6c0.9-1,1.3-2.2,1.2-3.5c0-0.8-0.3-1.5-0.7-2.1L51.5,49.6z
		 M52,43.9c0.3-0.4,0.9-0.6,1.4-0.6c0.4,0,0.9,0.2,1.2,0.5c0.8,0.7,0.8,1.8,0.2,2.6c-0.6,0.7-1.9,0.8-2.6,0.2
		c-0.4-0.3-0.6-0.8-0.6-1.3C51.5,44.8,51.7,44.3,52,43.9z M17.3,88.9c-0.6,0.7-1.9,0.8-2.6,0.2c-0.4-0.3-0.6-0.8-0.6-1.3
		c0-0.5,0.1-1,0.5-1.3c0.3-0.4,0.8-0.6,1.4-0.6c0.4,0,0.9,0.2,1.2,0.5c0.4,0.3,0.6,0.8,0.6,1.3C17.7,88,17.6,88.5,17.3,88.9z"/>
	<path class="st0" d="M84.2,27.9c0,0.8,0.3,1.5,0.7,2.1l-5.3,6.1c-1.9-0.7-4.2-0.3-5.5,1.2c-1.8,2-1.6,5.1,0.4,6.9
		c0.9,0.8,2,1.2,3.2,1.2c1.4,0,2.7-0.6,3.6-1.6c0.9-1,1.3-2.2,1.2-3.5c0-0.8-0.3-1.5-0.7-2.1l5.3-6c0.6,0.3,1.2,0.4,1.9,0.4
		c1.4,0,2.7-0.6,3.6-1.6c1.8-2,1.6-5.1-0.4-6.9c-1.9-1.7-5.2-1.5-6.9,0.4C84.6,25.3,84.2,26.6,84.2,27.9z M79,41.7
		c-0.6,0.7-1.9,0.8-2.6,0.2c-0.8-0.7-0.8-1.8-0.2-2.6c0.3-0.4,0.9-0.6,1.4-0.6c0.4,0,0.9,0.2,1.2,0.5c0.4,0.3,0.6,0.8,0.6,1.3
		C79.5,40.9,79.4,41.3,79,41.7z M87.7,26.3c0.3-0.4,0.8-0.6,1.4-0.6c0.4,0,0.9,0.2,1.2,0.5c0.8,0.7,0.8,1.8,0.2,2.6
		c-0.6,0.7-1.9,0.8-2.6,0.2c-0.4-0.3-0.6-0.8-0.6-1.3C87.2,27.2,87.4,26.7,87.7,26.3z"/>
	<path class="st0" d="M50.8,90.5L36.4,77.8l-2,2.3l0,0l-3.7,4.2c-1.9-0.7-4.2-0.3-5.5,1.2c-1.8,2-1.6,5.1,0.4,6.9
		c0.9,0.8,2,1.2,3.2,1.2c1.4,0,2.7-0.6,3.6-1.6c0.9-1,1.3-2.2,1.2-3.5c0-0.8-0.3-1.5-0.7-2.1l3.7-4.2l12,10.6
		c-0.3,0.7-0.5,1.4-0.4,2.2c0.1,1.3,0.7,2.5,1.6,3.3c0.9,0.8,2,1.2,3.2,1.2c1.4,0,2.7-0.6,3.6-1.6c1.8-2,1.6-5.1-0.4-6.9
		C54.9,89.6,52.5,89.5,50.8,90.5z M30.2,89.9c-0.6,0.7-1.9,0.8-2.6,0.2c-0.8-0.7-0.8-1.8-0.2-2.6c0.3-0.4,0.8-0.6,1.4-0.6
		c0.4,0,0.9,0.2,1.2,0.5c0.4,0.3,0.6,0.8,0.6,1.3C30.7,89.1,30.5,89.6,30.2,89.9z M54.6,95.8c-0.6,0.7-1.9,0.8-2.6,0.2
		c-0.4-0.3-0.6-0.8-0.6-1.3c0-0.5,0.1-1,0.5-1.3c0.3-0.4,0.9-0.6,1.4-0.6c0.4,0,0.9,0.2,1.2,0.5C55.2,93.9,55.2,95.1,54.6,95.8z"/>
	<path class="st0" d="M82.9,69.9c0.9,0.8,2,1.2,3.2,1.2c1.4,0,2.7-0.6,3.6-1.6c1.8-2,1.6-5.1-0.4-6.9c-1.5-1.4-3.9-1.5-5.6-0.5
		L71.9,51.7c0.3-0.7,0.4-1.4,0.4-2.2c-0.1-1.3-0.7-2.5-1.6-3.3c-1.9-1.7-5.2-1.5-6.9,0.4c-0.9,1-1.3,2.2-1.2,3.5
		c0.1,1.3,0.7,2.5,1.6,3.3c0.9,0.8,2,1.2,3.2,1.2c0.9,0,1.7-0.3,2.4-0.7l11.7,10.4c-0.3,0.7-0.4,1.4-0.4,2.2
		C81.3,67.8,81.9,69,82.9,69.9z M86.1,64.4c0.4,0,0.9,0.2,1.2,0.5c0.8,0.7,0.8,1.8,0.2,2.6c-0.6,0.7-1.9,0.8-2.6,0.2
		c-0.4-0.3-0.6-0.8-0.6-1.3c0-0.5,0.1-1,0.5-1.3C85.1,64.6,85.6,64.4,86.1,64.4z M68.8,51c-0.6,0.7-1.9,0.8-2.6,0.2
		c-0.4-0.3-0.6-0.8-0.6-1.3c0-0.5,0.1-1,0.5-1.3c0.3-0.4,0.8-0.6,1.4-0.6c0.4,0,0.9,0.2,1.2,0.5c0.4,0.3,0.6,0.8,0.6,1.3
		C69.3,50.1,69.2,50.6,68.8,51z"/>
	<path class="st0" d="M43.5,45.4l2-2.3l0,0L61.5,25l-2.3-2l0,0l-9.3-8.2l-2,2.3l0,0l-5.4,6.1c-1.9-0.7-4.2-0.3-5.5,1.2
		c-1.8,2-1.6,5.1,0.4,6.9c0.9,0.8,2,1.2,3.2,1.2c1.4,0,2.7-0.6,3.6-1.6c1.4-1.6,1.6-3.9,0.5-5.7l5.3-6l7,6.2L43.2,41.1L9.9,11.7
		c0.8-1.9,0.4-4.1-1.2-5.6C6.8,4.5,3.6,4.7,1.8,6.6c-0.9,1-1.3,2.2-1.2,3.5c0.1,1.3,0.7,2.5,1.6,3.3c0.9,0.8,2,1.2,3.2,1.2
		c0.9,0,1.7-0.3,2.4-0.7L43.5,45.4z M42,28.8c-0.6,0.7-1.9,0.8-2.6,0.2c-0.8-0.7-0.8-1.8-0.2-2.6c0.3-0.4,0.9-0.6,1.4-0.6
		c0.4,0,0.9,0.2,1.2,0.5C42.6,26.9,42.7,28.1,42,28.8z M6.9,11c-0.6,0.7-1.9,0.8-2.6,0.2c-0.4-0.3-0.6-0.8-0.6-1.3
		c0-0.5,0.1-1,0.5-1.3C4.5,8.2,5,8,5.5,8c0.4,0,0.9,0.2,1.2,0.5C7.5,9.1,7.5,10.3,6.9,11z"/>
	<path class="st0" d="M34.2,18.7c1.4,0,2.7-0.6,3.6-1.6c1.8-2,1.6-5.1-0.4-6.9c-1.9-1.7-5.2-1.5-6.9,0.4c-1.8,2-1.6,5.1,0.4,6.9
		C31.9,18.3,33,18.7,34.2,18.7z M32.8,12.6c0.3-0.4,0.8-0.6,1.4-0.6c0.4,0,0.9,0.2,1.2,0.5c0.8,0.7,0.8,1.8,0.2,2.6
		c-0.6,0.7-1.9,0.8-2.6,0.2C32.2,14.6,32.2,13.4,32.8,12.6z"/>
	<path class="st0" d="M15.1,70.4l5.3-6c0.6,0.3,1.2,0.4,1.9,0.4c1.4,0,2.7-0.6,3.6-1.6c1.8-2,1.6-5.1-0.4-6.9
		c-1.9-1.7-5.2-1.5-6.9,0.4c-1.4,1.6-1.6,3.9-0.5,5.7l-5.4,6.1c-1.9-0.7-4.2-0.3-5.5,1.2c-1.8,2-1.6,5.1,0.4,6.9
		c0.9,0.8,2,1.2,3.2,1.2c1.4,0,2.7-0.6,3.6-1.6C16,74.5,16.1,72.2,15.1,70.4z M21,58.7c0.3-0.4,0.8-0.6,1.4-0.6
		c0.4,0,0.9,0.2,1.2,0.5c0.8,0.7,0.8,1.8,0.2,2.6c-0.6,0.7-1.9,0.8-2.6,0.2C20.4,60.6,20.3,59.5,21,58.7z M12.3,74.1
		c-0.6,0.7-1.9,0.8-2.6,0.2c-0.8-0.7-0.8-1.8-0.2-2.6c0.3-0.4,0.8-0.6,1.4-0.6c0.4,0,0.9,0.2,1.2,0.5C12.9,72.2,12.9,73.3,12.3,74.1
		z"/>
	<path class="st0" d="M46.8,10.7c0.9,0,1.7-0.3,2.4-0.7l14.3,12.6l2-2.3l0,0l3.7-4.2c0.6,0.3,1.2,0.4,1.9,0.4c1.4,0,2.7-0.6,3.6-1.6
		c1.8-2,1.6-5.1-0.4-6.9c-1.9-1.7-5.2-1.5-6.9,0.4c-0.9,1-1.3,2.2-1.2,3.5c0,0.8,0.3,1.5,0.7,2.1l-3.7,4.2l-12-10.6
		c0.3-0.7,0.4-1.4,0.4-2.2C51.6,4.2,51,3,50,2.2c-1.9-1.7-5.2-1.5-6.9,0.4c-0.9,1-1.3,2.2-1.2,3.5c0.1,1.3,0.7,2.5,1.6,3.3
		C44.5,10.2,45.6,10.7,46.8,10.7z M69.8,10.5c0.3-0.4,0.8-0.6,1.4-0.6c0.4,0,0.9,0.2,1.2,0.5c0.8,0.7,0.8,1.8,0.2,2.6
		c-0.6,0.7-1.9,0.8-2.6,0.2c-0.4-0.3-0.6-0.8-0.6-1.3C69.3,11.4,69.5,10.9,69.8,10.5z M45.4,4.6C45.8,4.2,46.3,4,46.8,4
		c0.4,0,0.9,0.2,1.2,0.5c0.4,0.3,0.6,0.8,0.6,1.3c0,0.5-0.1,1-0.5,1.3c-0.6,0.7-1.9,0.8-2.6,0.2C45.2,6.9,45,6.4,45,5.9
		C45,5.4,45.1,5,45.4,4.6z"/>
	<path class="st0" d="M29.3,54.3c0.9,0.8,2,1.2,3.2,1.2c1.4,0,2.7-0.6,3.6-1.6c0.9-1,1.3-2.2,1.2-3.5c-0.1-1.3-0.7-2.5-1.6-3.3
		c-1.5-1.4-3.9-1.5-5.6-0.5L18.4,36.1c0.3-0.7,0.4-1.4,0.4-2.2c-0.1-1.3-0.7-2.5-1.6-3.3c-1.9-1.7-5.2-1.5-6.9,0.4
		C9.4,32,9,33.2,9,34.5c0.1,1.3,0.7,2.5,1.6,3.3c0.9,0.8,2,1.2,3.2,1.2c0.9,0,1.7-0.3,2.4-0.7l11.7,10.4
		C27.3,50.6,27.7,52.9,29.3,54.3z M31.1,49.5c0.3-0.4,0.9-0.6,1.4-0.6c0.4,0,0.9,0.2,1.2,0.5c0.4,0.3,0.6,0.8,0.6,1.3
		c0,0.5-0.1,1-0.5,1.3c-0.6,0.7-1.9,0.8-2.6,0.2C30.6,51.4,30.5,50.2,31.1,49.5z M12.7,35.6c-0.4-0.3-0.6-0.8-0.6-1.3
		c0-0.5,0.1-1,0.5-1.3c0.3-0.4,0.8-0.6,1.4-0.6c0.4,0,0.9,0.2,1.2,0.5c0.4,0.3,0.6,0.8,0.6,1.3c0,0.5-0.1,1-0.5,1.3
		C14.6,36.2,13.4,36.3,12.7,35.6z"/>
</g>
</svg>
