<?xml version="1.0" encoding="iso-8859-1"?>
<!-- Generator: Adobe Illustrator 23.0.6, SVG Export Plug-In . SVG Version: 6.00 Build 0)  -->
<svg version="1.1" id="Capa_1" xmlns="http://www.w3.org/2000/svg" xmlns:xlink="http://www.w3.org/1999/xlink" x="0px" y="0px"
	 viewBox="0 0 402.254 405.999" style="enable-background:new 0 0 402.254 405.999;" xml:space="preserve">
<g>
	<g>
		<path style="fill:#7DAC39;" d="M8.91,155.291C35.151,49.201,142.419-15.468,248.475,10.782
			C354.559,37.024,419.23,144.273,392.991,250.344c-26.252,106.068-133.497,170.767-239.579,144.508
			C47.351,368.614-17.358,261.356,8.91,155.291"/>
	</g>
	<polygon style="fill:#F4D60C;" points="16.787,203.613 199.478,320.282 382.17,203.613 199.478,86.953 	"/>
	<g>
		<path style="fill:#001D7E;" d="M199.478,125.361c43.195,0,78.227,35.043,78.227,78.253c0,43.227-35.032,78.259-78.227,78.259
			c-43.24,0-78.271-35.032-78.271-78.259C121.207,160.404,156.238,125.361,199.478,125.361"/>
		<path style="fill:#FFFFFF;" d="M277.325,211.487c-34.226-27.31-77.958-43.042-125.149-41.356
			c-8.346,0.277-16.558,1.171-24.587,2.509c-1.676,3.874-3.035,7.924-4.063,12.085c9.416-1.889,19.102-3.082,29.051-3.437
			c46.566-1.642,89.605,14.679,122.449,42.717C276.122,219.968,276.901,215.772,277.325,211.487"/>
	</g>
	<path style="fill:#56954C;" d="M131.402,177.574l0.871,1.849l1.604,0.446l1.407-0.857l0.291-2.065l-0.847-1.861l-1.607-0.413
		l-1.426,0.859L131.402,177.574z M129.842,177.841l0.066-1.984l0.535-1.138l0.893-0.828l1.606-0.536l2.812,0.658l1.429,2.734
		l-0.604,3.02l-2.5,1.42l-2.83-0.651L129.842,177.841z"/>
	<path style="fill:#56954C;" d="M141.777,175.675l1.116-0.1l1.383-0.214l0.403-0.366l0.111-0.578l-0.246-0.615l-0.625-0.237
		l-1.137,0.08l-1.183,0.102L141.777,175.675z M140.615,180.218l-0.666-7.622l3.212-0.288l1.831,0.045l0.936,0.648l0.448,1.181
		l-0.382,1.449l-1.451,0.839l0.894,0.566l0.958,1.161l1.072,1.408l-1.829,0.161l-1.272-1.556l-0.892-1.04l-0.492-0.288l-0.8-0.013
		l-0.316,0.035l0.289,3.178L140.615,180.218z"/>
	<path style="fill:#56954C;" d="M151.46,173.044l0.135,5.066l1.161-0.034l0.938-0.089l0.602-0.347l0.378-0.758l0.135-1.394
		l-0.199-1.351l-0.469-0.737l-0.717-0.334l-1.268-0.032L151.46,173.044z M149.88,171.794l2.831-0.068l1.45,0.088l1.163,0.683
		l0.778,1.213l0.29,1.812l-0.2,1.629l-0.759,1.37l-1.07,0.638l-1.383,0.208l-2.902,0.082L149.88,171.794z"/>
	<polygon style="fill:#56954C;" points="159.493,179.221 159.581,171.57 165.271,171.659 165.251,172.955 161.122,172.885 
		161.1,174.592 164.938,174.647 164.916,175.945 161.078,175.878 161.033,177.972 165.317,178.021 165.295,179.311 	"/>
	<polygon style="fill:#56954C;" points="168.375,179.423 168.912,171.794 171.211,171.949 172.235,177.261 173.952,172.153 
		176.273,172.307 175.737,179.936 174.309,179.849 174.734,173.837 172.793,179.737 171.32,179.638 170.226,173.51 169.805,179.513 
			"/>
	<polygon style="fill:#56954C;" points="183.657,180.851 184.797,173.291 190.419,174.148 190.221,175.432 186.135,174.806 
		185.868,176.48 189.684,177.05 189.479,178.329 185.691,177.751 185.377,179.815 189.614,180.45 189.416,181.732 	"/>
	<path style="fill:#56954C;" d="M199.877,177.328l-0.49,2.12l0.824,0.189l1.231,0.166l0.558-0.267l0.29-0.536l-0.089-0.739
		l-0.538-0.466l-1.045-0.301L199.877,177.328z M196.934,183.173l1.74-7.453l2.412,0.557l1.761,0.514l0.913,0.98l0.091,1.553
		l-0.514,1.109l-0.801,0.588l-0.874,0.166l-1.582-0.256l-0.981-0.225l-0.647,2.825L196.934,183.173z"/>
	<path style="fill:#56954C;" d="M208.335,181.456l1.094,0.313l1.361,0.277l0.515-0.175l0.31-0.526l-0.046-0.648l-0.469-0.449
		l-1.092-0.344l-1.114-0.323L208.335,181.456z M205.637,185.256l2.097-7.361l3.122,0.903l1.655,0.694l0.665,0.947v1.251
		l-0.891,1.236l-1.652,0.246l0.628,0.85l0.489,1.448l0.513,1.694l-1.785-0.51l-0.625-1.919l-0.467-1.306l-0.359-0.435l-0.736-0.29
		l-0.29-0.091l-0.87,3.081L205.637,185.256z"/>
	<path style="fill:#56954C;" d="M217.102,184.725l-0.088,2.054l1.229,1.148l1.629-0.157l1.227-1.674l0.11-2.051l-1.249-1.119
		l-1.651,0.112L217.102,184.725z M215.587,184.244l0.959-1.739l1.004-0.763l1.162-0.321l1.673,0.256l2.207,1.877v3.09l-1.894,2.41
		l-2.88,0.097l-2.231-1.851V184.244z"/>
	<polygon style="fill:#56954C;" points="228.483,190.068 228.978,188.873 232.055,190.134 230.914,192.947 229.285,193.19 
		227.437,192.813 225.671,191.553 225.002,189.708 225.36,187.636 226.633,185.873 228.527,185.114 230.357,185.47 232.187,186.866 
		232.5,188.785 230.982,188.463 230.759,187.404 229.867,186.676 228.128,186.654 226.832,188.194 226.633,190.314 227.838,191.553 
		228.819,191.739 229.758,191.642 230.135,190.735 	"/>
	<path style="fill:#56954C;" d="M236.716,191.907l1.049,0.503l1.272,0.515l0.54-0.111l0.375-0.449l0.087-0.648l-0.398-0.523
		l-0.981-0.504l-1.116-0.523L236.716,191.907z M233.435,195.246l3.281-6.907l2.924,1.394l1.52,0.957l0.508,1.042l-0.244,1.235
		l-1.047,1.073l-1.673-0.025l0.464,0.927l0.27,1.507l0.202,1.752l-1.674-0.792l-0.292-1.986l-0.245-1.371l-0.287-0.49l-0.671-0.406
		l-0.265-0.131l-1.387,2.892L233.435,195.246z"/>
	<polygon style="fill:#56954C;" points="241.87,199.362 245.532,192.637 250.506,195.346 249.904,196.471 246.244,194.508 
		245.442,196.013 248.832,197.832 248.206,198.968 244.839,197.142 243.857,198.968 247.606,201 247.003,202.139 	"/>
	<polygon style="fill:#56954C;" points="250.574,201.315 251.935,201.96 251.823,203.21 252.583,204.091 253.719,204.404 
		254.433,203.969 254.544,203.479 254.231,202.919 253.34,201.995 252.245,200.443 252.447,198.769 253.294,197.988 
		254.499,197.831 255.926,198.38 257.445,200.04 257.245,201.895 255.886,201.146 255.972,200.197 255.258,199.462 254.212,199.147 
		253.763,199.439 253.719,199.953 254.681,201.115 255.795,202.45 256.104,203.567 255.752,204.76 254.812,205.641 253.474,205.82 
		251.91,205.196 250.352,203.466 	"/>
	<polygon style="fill:#56954C;" points="258.227,206.043 259.565,206.768 259.387,207.984 260.123,208.909 261.238,209.28 
		261.951,208.877 262.083,208.422 261.816,207.829 260.971,206.858 259.944,205.252 260.232,203.589 261.124,202.853 
		262.354,202.751 263.739,203.379 265.164,205.12 264.875,206.946 263.558,206.145 263.671,205.197 263.025,204.439 
		261.997,204.079 261.504,204.314 261.44,204.841 262.335,206.055 263.401,207.438 263.671,208.565 263.246,209.746 262.244,210.56 
		260.925,210.695 259.387,209.982 257.913,208.185 	"/>
	<path style="fill:#56954C;" d="M267.778,211.052l-0.695,1.956l0.804,1.438l1.606,0.392l1.697-1.24l0.713-1.91l-0.844-1.438
		l-1.611-0.412L267.778,211.052z M266.482,210.128l1.472-1.338l1.184-0.412l1.204,0.043l1.516,0.755l1.518,2.469l-0.959,2.947
		l-2.544,1.695l-2.79-0.781l-1.516-2.479L266.482,210.128z"/>
	<polygon style="fill:#FFFFFF;" points="224.313,173.914 225.049,176.125 227.367,176.125 225.493,177.495 226.209,179.694 
		224.313,178.342 222.436,179.694 223.174,177.495 221.298,176.125 223.618,176.125 	"/>
	<polygon style="fill:#FFFFFF;" points="199.787,237.125 200.504,239.334 202.824,239.334 200.952,240.694 201.663,242.915 
		199.787,241.542 197.916,242.915 198.63,240.694 196.751,239.334 199.077,239.334 	"/>
	<polygon style="fill:#FFFFFF;" points="255.326,229.347 256.06,231.613 258.427,231.613 256.509,232.997 257.244,235.24 
		255.326,233.856 253.43,235.24 254.14,232.997 252.246,231.613 254.589,231.613 	"/>
	<polygon style="fill:#FFFFFF;" points="266.282,231.221 266.75,232.653 268.267,232.653 267.04,233.543 267.508,234.985 
		266.282,234.112 265.076,234.985 265.522,233.543 264.317,232.653 265.833,232.653 	"/>
	<polygon style="fill:#FFFFFF;" points="258.494,236.813 259.139,238.765 261.196,238.765 259.519,239.97 260.169,241.92 
		258.494,240.717 256.841,241.92 257.491,239.97 255.816,238.765 257.87,238.765 	"/>
	<polygon style="fill:#FFFFFF;" points="253.608,243.271 254.231,245.19 256.24,245.19 254.635,246.381 255.258,248.304 
		253.608,247.109 252,248.304 252.629,246.381 250.976,245.19 253.003,245.19 	"/>
	<polygon style="fill:#FFFFFF;" points="247.337,247.959 247.827,249.429 249.368,249.429 248.117,250.357 248.608,251.83 
		247.337,250.902 246.088,251.83 246.558,250.357 245.304,249.429 246.869,249.429 	"/>
	<polygon style="fill:#FFFFFF;" points="239.106,246.382 239.596,247.834 241.113,247.834 239.885,248.728 240.353,250.199 
		239.106,249.296 237.879,250.199 238.347,248.728 237.118,247.834 238.659,247.834 	"/>
	<polygon style="fill:#FFFFFF;" points="230.247,249.063 230.759,250.645 232.41,250.645 231.072,251.617 231.588,253.19 
		230.247,252.209 228.905,253.19 229.419,251.617 228.082,250.645 229.731,250.645 	"/>
	<polygon style="fill:#FFFFFF;" points="239.26,261.982 239.73,263.475 241.291,263.475 240.039,264.379 240.533,265.866 
		239.26,264.947 237.987,265.866 238.48,264.379 237.229,263.475 238.769,263.475 	"/>
	<polygon style="fill:#FFFFFF;" points="223.285,255.176 223.931,257.185 226.05,257.185 224.331,258.435 225.003,260.443 
		223.285,259.193 221.567,260.443 222.238,258.435 220.518,257.185 222.637,257.185 	"/>
	<polygon style="fill:#FFFFFF;" points="217.148,247.007 217.662,248.547 219.291,248.547 217.973,249.485 218.486,251.037 
		217.148,250.089 215.853,251.037 216.344,249.485 215.053,248.547 216.659,248.547 	"/>
	<polygon style="fill:#FFFFFF;" points="239.506,253.413 240.154,255.363 242.205,255.363 240.533,256.572 241.16,258.521 
		239.506,257.318 237.854,258.521 238.481,256.572 236.828,255.363 238.88,255.363 	"/>
	<polygon style="fill:#FFFFFF;" points="199.701,265.985 199.922,266.701 200.661,266.701 200.057,267.137 200.282,267.826 
		199.701,267.402 199.098,267.826 199.322,267.137 198.742,266.701 199.478,266.701 	"/>
	<polygon style="fill:#FFFFFF;" points="220.451,197.722 220.99,199.327 222.659,199.327 221.298,200.308 221.835,201.914 
		220.451,200.934 219.112,201.914 219.623,200.308 218.267,199.327 219.938,199.327 	"/>
	<polygon style="fill:#FFFFFF;" points="199.743,214.968 200.303,216.664 202.09,216.664 200.637,217.701 201.196,219.399 
		199.743,218.339 198.319,219.399 198.875,217.701 197.425,216.664 199.21,216.664 	"/>
	<polygon style="fill:#FFFFFF;" points="208.937,222.086 209.521,223.895 211.436,223.895 209.898,225.007 210.5,226.815 
		208.937,225.7 207.397,226.815 208.001,225.007 206.438,223.895 208.357,223.895 	"/>
	<polygon style="fill:#FFFFFF;" points="191.802,222.332 192.248,223.761 193.767,223.761 192.539,224.63 193.007,226.081 
		191.802,225.186 190.575,226.081 191.044,224.63 189.815,223.761 191.31,223.761 	"/>
	<polygon style="fill:#FFFFFF;" points="195.595,228.77 195.908,229.738 196.91,229.738 196.086,230.32 196.399,231.268 
		195.595,230.676 194.794,231.268 195.104,230.32 194.3,229.738 195.282,229.738 	"/>
	<polygon style="fill:#FFFFFF;" points="134.818,187.546 135.532,189.766 137.848,189.766 135.978,191.114 136.692,193.334 
		134.818,191.961 132.941,193.334 133.657,191.114 131.782,189.766 134.104,189.766 	"/>
	<polygon style="fill:#FFFFFF;" points="169.046,205.306 169.624,207.127 171.543,207.127 170.003,208.255 170.606,210.083 
		169.046,208.954 167.48,210.083 168.107,208.255 166.546,207.127 168.464,207.127 	"/>
	<polygon style="fill:#FFFFFF;" points="141.913,220.781 142.627,223.001 144.945,223.001 143.073,224.385 143.786,226.594 
		141.913,225.211 140.017,226.594 140.73,224.385 138.856,223.001 141.176,223.001 	"/>
	<polygon style="fill:#FFFFFF;" points="149.589,217.479 149.945,218.595 151.103,218.595 150.168,219.275 150.524,220.376 
		149.589,219.701 148.651,220.376 149.007,219.275 148.071,218.595 149.23,218.595 	"/>
	<polygon style="fill:#FFFFFF;" points="158.511,229.116 159.115,231 161.1,231 159.494,232.161 160.096,234.045 158.511,232.874 
		156.885,234.045 157.511,232.161 155.901,231 157.888,231 	"/>
	<polygon style="fill:#FFFFFF;" points="167.818,243.663 168.532,245.868 170.853,245.868 168.975,247.232 169.689,249.43 
		167.818,248.08 165.944,249.43 166.657,247.232 164.782,245.868 167.101,245.868 	"/>
	<polygon style="fill:#FFFFFF;" points="155.925,237.013 156.546,238.888 158.511,238.888 156.929,240.06 157.53,241.931 
		155.925,240.772 154.342,241.931 154.941,240.06 153.335,238.888 155.324,238.888 	"/>
	<polygon style="fill:#FFFFFF;" points="132.096,228.824 132.563,230.284 134.104,230.284 132.851,231.19 133.343,232.653 
		132.096,231.76 130.846,232.653 131.311,231.19 130.065,230.284 131.603,230.284 	"/>
	<path style="fill:#488038;" d="M207.734,177.896l-2.097,7.36l1.493,0.439l0.87-3.08l0.291,0.089l0.736,0.29l0.358,0.435
		l0.467,1.306l0.625,1.919l1.784,0.51l-0.513-1.694l-0.487-1.448l-0.628-0.85l1.652-0.246l0.891-1.235v-1.252l-0.666-0.948
		l-1.653-0.694L207.734,177.896z M210.791,182.045l-1.361-0.277l-1.095-0.311l0.56-1.877l1.114,0.324l1.092,0.344l0.469,0.448
		l0.046,0.648l-0.31,0.526L210.791,182.045z"/>
	<path style="fill:#488038;" d="M218.712,181.422l-1.162,0.322l-1.004,0.763l-0.959,1.739v3.055l2.231,1.851l2.879-0.098
		l1.896-2.409v-3.09l-2.208-1.877L218.712,181.422z M218.243,187.928l-1.229-1.149l0.089-2.053l1.205-1.687l1.651-0.112l1.25,1.119
		l-0.111,2.05l-1.227,1.674L218.243,187.928z"/>
	<polygon style="fill:#488038;" points="228.528,185.115 226.632,185.874 225.36,187.635 225.003,189.709 225.671,191.553 
		227.436,192.814 229.285,193.19 230.915,192.948 232.054,190.135 228.977,188.872 228.483,190.068 230.135,190.735 
		229.759,191.643 228.82,191.739 227.839,191.553 226.632,190.313 226.832,188.194 228.128,186.654 229.867,186.676 
		230.759,187.405 230.982,188.463 232.5,188.785 232.188,186.866 230.356,185.47 	"/>
	<path style="fill:#488038;" d="M236.717,188.339l-3.283,6.907l1.384,0.67l1.388-2.892l0.264,0.131l0.672,0.406l0.286,0.489
		l0.245,1.373l0.292,1.986l1.675,0.792l-0.202-1.752l-0.271-1.507l-0.464-0.928l1.671,0.024l1.047-1.072l0.245-1.235l-0.509-1.042
		l-1.518-0.957L236.717,188.339z M239.036,192.925l-1.272-0.515l-1.047-0.503l0.826-1.74l1.116,0.523l0.982,0.504l0.398,0.523
		l-0.088,0.648l-0.375,0.448L239.036,192.925z"/>
	<polygon style="fill:#488038;" points="245.531,192.637 241.87,199.362 247.002,202.139 247.606,201 243.856,198.967 
		244.838,197.142 248.205,198.967 248.833,197.832 245.442,196.013 246.243,194.507 249.903,196.472 250.505,195.346 	"/>
	<polygon style="fill:#488038;" points="254.499,197.832 253.294,197.989 252.447,198.768 252.245,200.443 253.34,201.995 
		254.231,202.918 254.544,203.48 254.433,203.969 253.719,204.403 252.583,204.091 251.822,203.209 251.935,201.96 250.574,201.316 
		250.352,203.467 251.91,205.197 253.474,205.821 254.812,205.642 255.752,204.76 256.104,203.568 255.796,202.45 254.681,201.114 
		253.719,199.952 253.763,199.439 254.212,199.147 255.258,199.461 255.972,200.196 255.886,201.145 257.243,201.894 
		257.445,200.04 255.926,198.38 	"/>
	<polygon style="fill:#488038;" points="262.354,202.752 261.125,202.852 260.232,203.588 259.944,205.252 260.97,206.858 
		261.815,207.828 262.084,208.421 261.95,208.878 261.239,209.279 260.123,208.91 259.386,207.983 259.566,206.768 258.226,206.043 
		257.914,208.185 259.386,209.982 260.924,210.694 262.244,210.56 263.245,209.746 263.67,208.565 263.401,207.439 262.334,206.056 
		261.44,204.841 261.504,204.313 261.996,204.08 263.024,204.438 263.67,205.197 263.558,206.145 264.874,206.946 265.164,205.119 
		263.739,203.378 	"/>
	<path style="fill:#488038;" d="M269.138,208.378l-1.183,0.412l-1.474,1.337l-0.913,2.9l1.514,2.479l2.791,0.781l2.543-1.694
		l0.96-2.948l-1.519-2.469l-1.516-0.754L269.138,208.378z M269.492,214.836l-1.606-0.392l-0.804-1.436l0.695-1.957l1.67-1.215
		l1.61,0.412l0.846,1.438l-0.714,1.91L269.492,214.836z"/>
</g>
</svg>
