<?xml version="1.0" encoding="iso-8859-1"?>
<!-- Generator: Adobe Illustrator 23.0.6, SVG Export Plug-In . SVG Version: 6.00 Build 0)  -->
<svg version="1.1" id="Capa_1" xmlns="http://www.w3.org/2000/svg" xmlns:xlink="http://www.w3.org/1999/xlink" x="0px" y="0px"
	 viewBox="0 0 402.254 405.999" style="enable-background:new 0 0 402.254 405.999;" xml:space="preserve">
<g>
	<path style="fill:#F7F7F8;" d="M8.994,155.308C35.183,49.441,142.226-15.094,248.06,11.103
		c105.862,26.185,170.399,133.211,144.212,239.06c-26.196,105.847-133.221,170.411-239.075,144.208
		C47.356,368.188-17.217,261.155,8.994,155.308"/>
	<path style="fill:#C43E19;" d="M383.23,127.655H230.285v30.228H392.94C390.516,147.522,387.253,137.419,383.23,127.655
		 M344.192,67.173H230.285v30.256h137.342C360.821,86.637,352.981,76.495,344.192,67.173 M58.039,339.303h285.206
		c8.83-9.201,16.81-19.311,23.785-30.226H34.295C41.194,319.871,49.144,330.001,58.039,339.303 M248.064,11.096
		c-5.926-1.469-11.858-2.635-17.78-3.542v29.393h77.628C290.011,25.365,269.922,16.502,248.064,11.096 M397.557,188.11H230.285
		v30.256h167.164C398.272,208.19,398.291,198.081,397.557,188.11 M18.46,278.848h364.359c3.817-9.172,6.988-18.747,9.447-28.688
		c0.131-0.523,0.244-1.043,0.368-1.566H8.573C11.059,258.965,14.371,269.081,18.46,278.848 M153.201,394.364
		c11.682,2.892,23.378,4.674,34.98,5.421h25.127c33.413-2.138,65.317-12.775,92.933-30.254H94.932
		C112.432,380.615,131.983,389.118,153.201,394.364"/>
	<path style="fill:#00386D;" d="M215.317,207.283l-4.263-3.11l-4.275,3.11l1.627-5.01l-4.259-3.109h5.268l1.64-5.01l1.614,5.01
		h5.281l-4.26,3.109L215.317,207.283z M194.344,48.172l1.625,5.038l-4.261-3.109l-4.272,3.109l1.637-5.038l-4.273-3.081h5.265
		l1.642-5.037l1.629,5.037h5.28L194.344,48.172z M194.344,93.628l1.625,5.01l-4.261-3.11l-4.272,3.11l1.637-5.01l-4.273-3.109h5.265
		l1.642-5.01l1.629,5.01h5.28L194.344,93.628z M193.954,138.161l1.628,5.011l-4.272-3.11l-4.264,3.11l1.628-5.011l-4.277-3.109
		h5.284l1.63-5.006l1.624,5.006h5.28L193.954,138.161z M195.193,187.189l-4.274-3.111l-4.261,3.111l1.624-5.01l-4.272-3.11h5.281
		l1.628-5.009l1.625,5.009h5.284l-4.274,3.11L195.193,187.189z M174.204,70.194l1.644,5.009l-4.261-3.078l-4.289,3.078l1.641-5.009
		l-4.263-3.109h5.269l1.642-5.006l1.611,5.006h5.269L174.204,70.194z M174.204,114.241l1.644,5.009l-4.261-3.109l-4.289,3.109
		l1.641-5.009l-4.263-3.109h5.269l1.642-5.01l1.611,5.01h5.269L174.204,114.241z M174.204,159.264l1.644,5.037l-4.261-3.108
		l-4.289,3.108l1.641-5.037l-4.263-3.081h5.269l1.642-5.038l1.611,5.038h5.269L174.204,159.264z M175.847,207.283l-4.261-3.11
		l-4.289,3.11l1.641-5.01l-4.263-3.109h5.269l1.642-5.01l1.611,5.01h5.269l-4.263,3.109L175.847,207.283z M154.862,48.172
		l1.64,5.038l-4.274-3.109l-4.275,3.109l1.639-5.038l-4.258-3.081h5.269l1.626-5.037l1.628,5.037h5.28L154.862,48.172z
		 M154.862,93.628l1.64,5.01l-4.274-3.11l-4.275,3.11l1.639-5.01l-4.258-3.109h5.269l1.626-5.01l1.628,5.01h5.28L154.862,93.628z
		 M154.485,138.161l1.626,5.011l-4.277-3.11l-4.257,3.11l1.628-5.011l-4.274-3.109h5.266l1.637-5.006l1.629,5.006h5.285
		L154.485,138.161z M155.71,187.189l-4.261-3.111l-4.273,3.111l1.625-5.01l-4.263-3.11h5.27l1.641-5.009l1.629,5.009h5.266
		l-4.26,3.11L155.71,187.189z M134.74,26.178l1.625,5.008l-4.261-3.107l-4.276,3.107l1.628-5.008l-4.258-3.11h5.279l1.628-5.009
		l1.626,5.009h5.284L134.74,26.178z M134.74,70.194l1.625,5.009l-4.261-3.078l-4.276,3.078l1.628-5.009l-4.258-3.109h5.279
		l1.628-5.006l1.626,5.006h5.284L134.74,70.194z M134.74,114.241l1.625,5.009l-4.261-3.109l-4.276,3.109l1.628-5.009l-4.258-3.109
		h5.279l1.628-5.01l1.626,5.01h5.284L134.74,114.241z M134.74,159.264l1.625,5.037l-4.261-3.108l-4.276,3.108l1.628-5.037
		l-4.258-3.081h5.279l1.628-5.038l1.626,5.038h5.284L134.74,159.264z M136.365,207.283l-4.261-3.11l-4.276,3.11l1.628-5.01
		l-4.258-3.109h5.279l1.628-5.01l1.626,5.01h5.284l-4.274,3.109L136.365,207.283z M115.393,46.589l1.641,5.037l-4.289-3.11
		l-4.261,3.11l1.64-5.037l-4.274-3.08h5.269l1.626-5.009l1.64,5.009h5.269L115.393,46.589z M115.393,92.044l1.641,5.01l-4.289-3.08
		l-4.261,3.08l1.64-5.01l-4.274-3.109h5.269l1.626-5.007l1.64,5.007h5.269L115.393,92.044z M114.989,136.579l1.643,5.01
		l-4.262-3.111l-4.289,3.111l1.64-5.01l-4.261-3.109h5.27l1.64-5.009l1.614,5.009h5.28L114.989,136.579z M116.24,185.635
		l-4.274-3.11l-4.261,3.11l1.629-5.039l-4.275-3.082h5.268l1.64-5.009l1.628,5.009h5.284l-4.263,3.082L116.24,185.635z
		 M95.269,70.194l1.642,5.009l-4.262-3.078l-4.289,3.078l1.641-5.009l-4.258-3.109h5.254l1.652-5.006l1.613,5.006h5.268
		L95.269,70.194z M95.269,114.241l1.642,5.009l-4.262-3.109l-4.289,3.109l1.641-5.009l-4.258-3.109h5.254l1.652-5.01l1.613,5.01
		h5.268L95.269,114.241z M95.269,159.264l1.642,5.037l-4.262-3.108l-4.289,3.108l1.641-5.037l-4.258-3.081h5.254l1.652-5.038
		l1.613,5.038h5.268L95.269,159.264z M96.911,207.283l-4.262-3.11l-4.289,3.11l1.641-5.01l-4.258-3.109h5.254l1.652-5.01l1.613,5.01
		h5.268l-4.261,3.109L96.911,207.283z M75.926,91.612l1.626,5.011l-4.261-3.109l-4.277,3.109l1.642-5.011l-4.274-3.109h5.281
		l1.628-5.008l1.623,5.008H80.2L75.926,91.612z M75.536,136.147l1.626,5.009l-4.259-3.109l-4.276,3.109l1.626-5.009l-4.261-3.109
		h5.266l1.644-5.01l1.61,5.01h5.284L75.536,136.147z M76.761,185.173l-4.261-3.109l-4.262,3.109l1.625-5.009l-4.276-3.109h5.285
		l1.627-5.009l1.639,5.009h5.269l-4.276,3.109L76.761,185.173z M169.944,23.068l1.642-5.009l1.611,5.009h5.269l-4.263,3.11
		l1.644,5.008l-4.261-3.107l-4.289,3.107l1.641-5.008l-4.263-3.11H169.944z M209.414,156.184l1.64-5.038l1.614,5.038h5.279
		l-4.257,3.081l1.628,5.037l-4.263-3.108l-4.275,3.108l1.627-5.037l-4.259-3.081H209.414z M209.414,111.132l1.64-5.01l1.614,5.01
		h5.279l-4.257,3.109l1.628,5.009l-4.263-3.109l-4.275,3.109l1.627-5.009l-4.259-3.109H209.414z M209.414,67.085l1.64-5.006
		l1.614,5.006h5.279l-4.257,3.109l1.628,5.009l-4.263-3.078l-4.275,3.078l1.627-5.009l-4.259-3.109H209.414z M209.414,23.068
		l1.64-5.009l1.614,5.009h5.279l-4.257,3.11l1.628,5.008l-4.263-3.107l-4.275,3.107l1.627-5.008l-4.259-3.11H209.414z
		 M55.799,114.241l1.628,5.009l-4.272-3.109l-4.26,3.109l1.625-5.009l-4.274-3.109h5.266l1.642-5.01l1.625,5.01h5.285
		L55.799,114.241z M55.799,159.264l1.628,5.037l-4.272-3.108l-4.26,3.108l1.625-5.037l-4.274-3.081h5.266l1.642-5.038l1.625,5.038
		h5.285L55.799,159.264z M57.426,207.283l-4.274-3.11l-4.257,3.11l1.625-5.01l-4.277-3.109h5.269l1.64-5.01l1.626,5.01h5.286
		l-4.266,3.109L57.426,207.283z M36.042,135.369l1.638,5.009l-4.275-3.106l-4.263,3.106l1.629-5.009l-4.274-3.109h5.284l1.625-5.009
		l1.64,5.009h5.269L36.042,135.369z M37.289,184.395l-4.258-3.109l-4.289,3.109l1.642-5.009l-4.263-3.109h5.269l1.641-5.009
		l1.61,5.009h5.286l-4.278,3.109L37.289,184.395z M17.948,207.283l-4.263-3.11l-4.274,3.11l1.626-5.01l-4.261-3.109h5.283
		l1.626-5.01l1.641,5.01h5.253l-4.257,3.109L17.948,207.283z M230.284,7.554c-1.94-0.297-16.332-1.876-18.269-2.114l-35.488,1.307
		c-36.786,4.531-71.292,19.368-99.703,42.207l0.728,2.241l-1.848-1.347c-6.532,5.328-12.728,11.087-18.553,17.239h2.913
		l-4.266,3.109l1.628,5.009l-4.272-3.078l-1.703,1.229c-3.982,4.585-7.76,9.371-11.323,14.344h0.59l-1.239,0.898
		c-0.863,1.221-1.717,2.451-2.554,3.692l1.144,3.527l-2.349-1.697C23.712,112.354,14.534,132.9,8.989,155.303
		c-0.073,0.292-0.136,0.586-0.206,0.88h3.275l1.626-5.038l1.641,5.038h5.253l-4.257,3.081l1.626,5.037l-4.263-3.108l-4.274,3.108
		l1.626-5.037l-2.543-1.839c-4.857,20.578-6.305,41.178-4.691,61.2h226.481V7.554z"/>
</g>
</svg>
